<?xml version="1.0" encoding="UTF-8"?> <!-- Generator: Adobe Illustrator 24.1.0, SVG Export Plug-In . SVG Version: 6.00 Build 0) --> <svg xmlns="http://www.w3.org/2000/svg" xmlns:xlink="http://www.w3.org/1999/xlink" id="Слой_1" x="0px" y="0px" viewBox="0 0 166.4 180.4" style="enable-background:new 0 0 166.4 180.4;" xml:space="preserve"> <style type="text/css"> .st0{fill:#46505B;} .st1{fill-rule:evenodd;clip-rule:evenodd;fill:#46505B;} .st2{fill-rule:evenodd;clip-rule:evenodd;} .st3{fill:#878787;} .st4{fill-rule:evenodd;clip-rule:evenodd;fill:#FFFFFF;} .st5{fill:#137994;} </style> <rect x="465.6" y="448.9" class="st0" width="166.4" height="180.4"></rect> <g> <g> <rect x="37.6" y="89.4" class="st1" width="10.1" height="37.3"></rect> <rect x="98.4" y="106.8" class="st1" width="10.1" height="37.3"></rect> <rect x="78.1" y="144" class="st1" width="10.1" height="11.9"></rect> <rect x="78.1" y="95.1" class="st1" width="10.1" height="37.1"></rect> <path class="st1" d="M83.2,24.5L83.2,24.5C58,24.5,37.6,44.9,37.6,70v7.6h10.1V70c0-19.6,15.9-35.4,35.4-35.4h0 c19.6,0,35.4,15.9,35.4,35.4v36.7h10.1V70C128.7,44.9,108.3,24.5,83.2,24.5z"></path> <rect x="78.1" y="144" class="st1" width="10.1" height="11.9"></rect> <rect x="78.1" y="95.1" class="st1" width="10.1" height="37.1"></rect> <path class="st1" d="M68,79.4c0-8.4,6.8-15.2,15.2-15.2s15.2,6.8,15.2,15.2V95h10.1V79.4c0-14-11.3-25.3-25.3-25.3 S57.9,65.5,57.9,79.4v6v58.6H68V85.5V79.4z"></path> </g> </g> <g> <g> <rect x="883.1" y="299" class="st2" width="10.1" height="37.3"></rect> <rect x="943.9" y="316.3" class="st2" width="10.1" height="37.3"></rect> <rect x="923.6" y="353.6" class="st2" width="10.1" height="11.9"></rect> <rect x="923.6" y="304.6" class="st2" width="10.1" height="37.1"></rect> <path class="st2" d="M928.7,234L928.7,234c-25.2,0-45.6,20.4-45.6,45.6v7.6h10.1v-7.6c0-19.6,15.9-35.4,35.4-35.4h0 c19.6,0,35.4,15.9,35.4,35.4v36.7h10.1v-36.7C974.2,254.4,953.8,234,928.7,234z"></path> <rect x="923.6" y="353.6" class="st2" width="10.1" height="11.9"></rect> <rect x="923.6" y="304.6" class="st2" width="10.1" height="37.1"></rect> <path class="st2" d="M913.5,289c0-8.4,6.8-15.2,15.2-15.2c8.4,0,15.2,6.8,15.2,15.2v15.5H954V289c0-14-11.3-25.3-25.3-25.3 c-14,0-25.3,11.3-25.3,25.3v6v58.6h10.1V295V289z"></path> </g> </g> <rect x="882.4" y="448.9" class="st3" width="166.4" height="180.4"></rect> <rect x="1424" y="263.4" width="166.4" height="180.4"></rect> <text transform="matrix(1 0 0 1 465.4377 648.3985)"><tspan x="0" y="0" style="fill:#382F2D; font-family:'CeraPro-Italic'; font-size:8px;">Ф</tspan><tspan x="6.6" y="0" style="fill:#382F2D; font-family:'CeraPro-Italic'; font-size:8px;">ир</tspan><tspan x="16.3" y="0" style="fill:#382F2D; font-family:'CeraPro-Italic'; font-size:8px;">м</tspan><tspan x="21.9" y="0" style="fill:#382F2D; font-family:'CeraPro-Italic'; font-size:8px;">е</tspan><tspan x="26.6" y="0" style="fill:#382F2D; font-family:'CeraPro-Italic'; font-size:8px;">н</tspan><tspan x="31.2" y="0" style="fill:#382F2D; font-family:'CeraPro-Italic'; font-size:8px;">н</tspan><tspan x="35.8" y="0" style="fill:#382F2D; font-family:'CeraPro-Italic'; font-size:8px;">ы</tspan><tspan x="41.4" y="0" style="fill:#382F2D; font-family:'CeraPro-Italic'; font-size:8px;">й </tspan><tspan x="48.1" y="0" style="fill:#382F2D; font-family:'CeraPro-Italic'; font-size:8px;">з</tspan><tspan x="51.9" y="0" style="fill:#382F2D; font-family:'CeraPro-Italic'; font-size:8px;">на</tspan><tspan x="61.7" y="0" style="fill:#382F2D; font-family:'CeraPro-Italic'; font-size:8px;">к </tspan><tspan x="68" y="0" style="fill:#382F2D; font-family:'CeraPro-Italic'; font-size:8px;">н</tspan><tspan x="72.6" y="0" style="fill:#382F2D; font-family:'CeraPro-Italic'; font-size:8px;">а </tspan><tspan x="79.9" y="0" style="fill:#382F2D; font-family:'CeraPro-Italic'; font-size:8px;">ц</tspan><tspan x="84.7" y="0" style="fill:#382F2D; font-family:'CeraPro-Italic'; font-size:8px;">ве</tspan><tspan x="93.6" y="0" style="fill:#382F2D; font-family:'CeraPro-Italic'; font-size:8px;">т</tspan><tspan x="100.7" y="0" style="fill:#382F2D; font-family:'CeraPro-Italic'; font-size:8px;">н</tspan><tspan x="105.3" y="0" style="fill:#382F2D; font-family:'CeraPro-Italic'; font-size:8px;">о</tspan><tspan x="110.3" y="0" style="fill:#382F2D; font-family:'CeraPro-Italic'; font-size:8px;">м </tspan><tspan x="118.1" y="0" style="fill:#382F2D; font-family:'CeraPro-Italic'; font-size:8px;">ф</tspan><tspan x="124" y="0" style="fill:#382F2D; font-family:'CeraPro-Italic'; font-size:8px;">о</tspan><tspan x="128.9" y="0" style="fill:#382F2D; font-family:'CeraPro-Italic'; font-size:8px;">н</tspan><tspan x="133.6" y="0" style="fill:#382F2D; font-family:'CeraPro-Italic'; font-size:8px;">е </tspan><tspan x="140.3" y="0" style="fill:#382F2D; font-family:'CeraPro-Italic'; font-size:8px;">в</tspan><tspan x="144.6" y="0" style="fill:#382F2D; font-family:'CeraPro-Italic'; font-size:8px;">о</tspan><tspan x="149.6" y="0" style="fill:#382F2D; font-family:'CeraPro-Italic'; font-size:8px;">с</tspan><tspan x="154.1" y="0" style="fill:#382F2D; font-family:'CeraPro-Italic'; font-size:8px;">п</tspan><tspan x="158.7" y="0" style="fill:#382F2D; font-family:'CeraPro-Italic'; font-size:8px;">р</tspan><tspan x="163.9" y="0" style="fill:#382F2D; font-family:'CeraPro-Italic'; font-size:8px;">о</tspan><tspan x="168.9" y="0" style="fill:#382F2D; font-family:'CeraPro-Italic'; font-size:8px;">и</tspan><tspan x="173.5" y="0" style="fill:#382F2D; font-family:'CeraPro-Italic'; font-size:8px;">з</tspan><tspan x="177.3" y="0" style="fill:#382F2D; font-family:'CeraPro-Italic'; font-size:8px;">в</tspan><tspan x="181.5" y="0" style="fill:#382F2D; font-family:'CeraPro-Italic'; font-size:8px;">о</tspan><tspan x="186.6" y="0" style="fill:#382F2D; font-family:'CeraPro-Italic'; font-size:8px;">ди</tspan><tspan x="196.1" y="0" style="fill:#382F2D; font-family:'CeraPro-Italic'; font-size:8px;">т</tspan><tspan x="203.2" y="0" style="fill:#382F2D; font-family:'CeraPro-Italic'; font-size:8px;">с</tspan><tspan x="207.8" y="0" style="fill:#382F2D; font-family:'CeraPro-Italic'; font-size:8px;">я в </tspan><tspan x="220.6" y="0" style="fill:#382F2D; font-family:'CeraPro-Italic'; font-size:8px;">б</tspan><tspan x="225.6" y="0" style="fill:#382F2D; font-family:'CeraPro-Italic'; font-size:8px;">е</tspan><tspan x="230.4" y="0" style="fill:#382F2D; font-family:'CeraPro-Italic'; font-size:8px;">ло</tspan><tspan x="239.8" y="0" style="fill:#382F2D; font-family:'CeraPro-Italic'; font-size:8px;">м </tspan><tspan x="247.5" y="0" style="fill:#382F2D; font-family:'CeraPro-Italic'; font-size:8px;">ц</tspan><tspan x="252.4" y="0" style="fill:#382F2D; font-family:'CeraPro-Italic'; font-size:8px;">ве</tspan><tspan x="261.3" y="0" style="fill:#382F2D; font-family:'CeraPro-Italic'; font-size:8px;">т</tspan><tspan x="268.4" y="0" style="fill:#382F2D; font-family:'CeraPro-Italic'; font-size:8px;">е</tspan><tspan x="273" y="0" style="fill:#382F2D; font-family:'CeraPro-Italic'; font-size:8px;">.</tspan></text> <text transform="matrix(1 0 0 1 882.4377 648.3985)"><tspan x="0" y="0" style="fill:#382F2D; font-family:'CeraPro-Italic'; font-size:8px;">Ф</tspan><tspan x="6.6" y="0" style="fill:#382F2D; font-family:'CeraPro-Italic'; font-size:8px;">ир</tspan><tspan x="16.3" y="0" style="fill:#382F2D; font-family:'CeraPro-Italic'; font-size:8px;">м</tspan><tspan x="21.9" y="0" style="fill:#382F2D; font-family:'CeraPro-Italic'; font-size:8px;">е</tspan><tspan x="26.6" y="0" style="fill:#382F2D; font-family:'CeraPro-Italic'; font-size:8px;">н</tspan><tspan x="31.2" y="0" style="fill:#382F2D; font-family:'CeraPro-Italic'; font-size:8px;">н</tspan><tspan x="35.8" y="0" style="fill:#382F2D; font-family:'CeraPro-Italic'; font-size:8px;">ы</tspan><tspan x="41.4" y="0" style="fill:#382F2D; font-family:'CeraPro-Italic'; font-size:8px;">й </tspan><tspan x="48.1" y="0" style="fill:#382F2D; font-family:'CeraPro-Italic'; font-size:8px;">з</tspan><tspan x="51.9" y="0" style="fill:#382F2D; font-family:'CeraPro-Italic'; font-size:8px;">на</tspan><tspan x="61.7" y="0" style="fill:#382F2D; font-family:'CeraPro-Italic'; font-size:8px;">к </tspan><tspan x="68" y="0" style="fill:#382F2D; font-family:'CeraPro-Italic'; font-size:8px;">н</tspan><tspan x="72.6" y="0" style="fill:#382F2D; font-family:'CeraPro-Italic'; font-size:8px;">а </tspan><tspan x="79.9" y="0" style="fill:#382F2D; font-family:'CeraPro-Italic'; font-size:8px;">с</tspan><tspan x="84.4" y="0" style="fill:#382F2D; font-family:'CeraPro-Italic'; font-size:8px;">е</tspan><tspan x="89" y="0" style="fill:#382F2D; font-family:'CeraPro-Italic'; font-size:8px;">р</tspan><tspan x="94.2" y="0" style="fill:#382F2D; font-family:'CeraPro-Italic'; font-size:8px;">о</tspan><tspan x="99.2" y="0" style="fill:#382F2D; font-family:'CeraPro-Italic'; font-size:8px;">м </tspan><tspan x="106.9" y="0" style="fill:#382F2D; font-family:'CeraPro-Italic'; font-size:8px;">ф</tspan><tspan x="112.8" y="0" style="fill:#382F2D; font-family:'CeraPro-Italic'; font-size:8px;">о</tspan><tspan x="117.8" y="0" style="fill:#382F2D; font-family:'CeraPro-Italic'; font-size:8px;">н</tspan><tspan x="122.4" y="0" style="fill:#382F2D; font-family:'CeraPro-Italic'; font-size:8px;">е</tspan><tspan x="127" y="0" style="fill:#382F2D; font-family:'CeraPro-Italic'; font-size:8px;">, </tspan><tspan x="0" y="9.6" style="fill:#382F2D; font-family:'CeraPro-Italic'; font-size:8px;">н</tspan><tspan x="4.6" y="9.6" style="fill:#382F2D; font-family:'CeraPro-Italic'; font-size:8px;">о </tspan><tspan x="11.7" y="9.6" style="fill:#382F2D; font-family:'CeraPro-Italic'; font-size:8px;">н</tspan><tspan x="16.4" y="9.6" style="fill:#382F2D; font-family:'CeraPro-Italic'; font-size:8px;">е </tspan><tspan x="23.1" y="9.6" style="fill:#382F2D; font-family:'CeraPro-Italic'; font-size:8px;">с</tspan><tspan x="27.7" y="9.6" style="fill:#382F2D; font-family:'CeraPro-Italic'; font-size:8px;">ве</tspan><tspan x="36.5" y="9.6" style="fill:#382F2D; font-family:'CeraPro-Italic'; font-size:8px;">т</tspan><tspan x="43.7" y="9.6" style="fill:#382F2D; font-family:'CeraPro-Italic'; font-size:8px;">л</tspan><tspan x="48.1" y="9.6" style="fill:#382F2D; font-family:'CeraPro-Italic'; font-size:8px;">е</tspan><tspan x="52.8" y="9.6" style="fill:#382F2D; font-family:'CeraPro-Italic'; font-size:8px;">е </tspan><tspan x="59.5" y="9.6" style="fill:#382F2D; font-family:'CeraPro-Italic'; font-size:8px;">6</tspan><tspan x="63.9" y="9.6" style="fill:#382F2D; font-family:'CeraPro-Italic'; font-size:8px;">0</tspan><tspan x="68.8" y="9.6" style="fill:#382F2D; font-family:'CeraPro-Italic'; font-size:8px;">% </tspan><tspan x="77.6" y="9.6" style="fill:#382F2D; font-family:'CeraPro-Italic'; font-size:8px;">ч</tspan><tspan x="81.8" y="9.6" style="fill:#382F2D; font-family:'CeraPro-Italic'; font-size:8px;">е</tspan><tspan x="86.4" y="9.6" style="fill:#382F2D; font-family:'CeraPro-Italic'; font-size:8px;">р</tspan><tspan x="91.6" y="9.6" style="fill:#382F2D; font-family:'CeraPro-Italic'; font-size:8px;">н</tspan><tspan x="96.2" y="9.6" style="fill:#382F2D; font-family:'CeraPro-Italic'; font-size:8px;">о</tspan><tspan x="101.2" y="9.6" style="fill:#382F2D; font-family:'CeraPro-Italic'; font-size:8px;">г</tspan><tspan x="104.9" y="9.6" style="fill:#382F2D; font-family:'CeraPro-Italic'; font-size:8px;">о </tspan><tspan x="112" y="9.6" style="fill:#382F2D; font-family:'CeraPro-Italic'; font-size:8px;">и</tspan><tspan x="116.7" y="9.6" style="fill:#382F2D; font-family:'CeraPro-Italic'; font-size:8px;">л</tspan><tspan x="121.1" y="9.6" style="fill:#382F2D; font-family:'CeraPro-Italic'; font-size:8px;">и </tspan><tspan x="127.8" y="9.6" style="fill:#382F2D; font-family:'CeraPro-Italic'; font-size:8px;">#</tspan><tspan x="132.6" y="9.6" style="fill:#382F2D; font-family:'CeraPro-Italic'; font-size:8px;">8</tspan><tspan x="137.2" y="9.6" style="fill:#382F2D; font-family:'CeraPro-Italic'; font-size:8px;">7</tspan><tspan x="141.2" y="9.6" style="fill:#382F2D; font-family:'CeraPro-Italic'; font-size:8px;">8</tspan><tspan x="145.7" y="9.6" style="fill:#382F2D; font-family:'CeraPro-Italic'; font-size:8px;">7</tspan><tspan x="149.7" y="9.6" style="fill:#382F2D; font-family:'CeraPro-Italic'; font-size:8px;">8</tspan><tspan x="154.3" y="9.6" style="fill:#382F2D; font-family:'CeraPro-Italic'; font-size:8px;">7</tspan><tspan x="157.6" y="9.6" style="fill:#382F2D; font-family:'CeraPro-Italic'; font-size:8px;">,</tspan><tspan x="0" y="19.2" style="fill:#382F2D; font-family:'CeraPro-Italic'; font-size:8px;">в</tspan><tspan x="4.2" y="19.2" style="fill:#382F2D; font-family:'CeraPro-Italic'; font-size:8px;">о</tspan><tspan x="9.3" y="19.2" style="fill:#382F2D; font-family:'CeraPro-Italic'; font-size:8px;">с</tspan><tspan x="13.8" y="19.2" style="fill:#382F2D; font-family:'CeraPro-Italic'; font-size:8px;">п</tspan><tspan x="18.4" y="19.2" style="fill:#382F2D; font-family:'CeraPro-Italic'; font-size:8px;">р</tspan><tspan x="23.6" y="19.2" style="fill:#382F2D; font-family:'CeraPro-Italic'; font-size:8px;">о</tspan><tspan x="28.6" y="19.2" style="fill:#382F2D; font-family:'CeraPro-Italic'; font-size:8px;">и</tspan><tspan x="33.2" y="19.2" style="fill:#382F2D; font-family:'CeraPro-Italic'; font-size:8px;">з</tspan><tspan x="37" y="19.2" style="fill:#382F2D; font-family:'CeraPro-Italic'; font-size:8px;">в</tspan><tspan x="41.2" y="19.2" style="fill:#382F2D; font-family:'CeraPro-Italic'; font-size:8px;">о</tspan><tspan x="46.2" y="19.2" style="fill:#382F2D; font-family:'CeraPro-Italic'; font-size:8px;">ди</tspan><tspan x="55.8" y="19.2" style="fill:#382F2D; font-family:'CeraPro-Italic'; font-size:8px;">т</tspan><tspan x="62.9" y="19.2" style="fill:#382F2D; font-family:'CeraPro-Italic'; font-size:8px;">с</tspan><tspan x="67.5" y="19.2" style="fill:#382F2D; font-family:'CeraPro-Italic'; font-size:8px;">я в </tspan><tspan x="80.3" y="19.2" style="fill:#382F2D; font-family:'CeraPro-Italic'; font-size:8px;">б</tspan><tspan x="85.3" y="19.2" style="fill:#382F2D; font-family:'CeraPro-Italic'; font-size:8px;">е</tspan><tspan x="90.1" y="19.2" style="fill:#382F2D; font-family:'CeraPro-Italic'; font-size:8px;">ло</tspan><tspan x="99.5" y="19.2" style="fill:#382F2D; font-family:'CeraPro-Italic'; font-size:8px;">м </tspan><tspan x="107.2" y="19.2" style="fill:#382F2D; font-family:'CeraPro-Italic'; font-size:8px;">ц</tspan><tspan x="112.1" y="19.2" style="fill:#382F2D; font-family:'CeraPro-Italic'; font-size:8px;">ве</tspan><tspan x="121" y="19.2" style="fill:#382F2D; font-family:'CeraPro-Italic'; font-size:8px;">т</tspan><tspan x="128.1" y="19.2" style="fill:#382F2D; font-family:'CeraPro-Italic'; font-size:8px;">e</tspan><tspan x="132.8" y="19.2" style="fill:#382F2D; font-family:'CeraPro-Italic'; font-size:8px;">.</tspan></text> <text transform="matrix(1 0 0 1 1060.8136 648.3907)"><tspan x="0" y="0" style="fill:#382F2D; font-family:'CeraPro-Italic'; font-size:8px;">Ф</tspan><tspan x="6.6" y="0" style="fill:#382F2D; font-family:'CeraPro-Italic'; font-size:8px;">ир</tspan><tspan x="16.3" y="0" style="fill:#382F2D; font-family:'CeraPro-Italic'; font-size:8px;">м</tspan><tspan x="21.9" y="0" style="fill:#382F2D; font-family:'CeraPro-Italic'; font-size:8px;">е</tspan><tspan x="26.6" y="0" style="fill:#382F2D; font-family:'CeraPro-Italic'; font-size:8px;">н</tspan><tspan x="31.2" y="0" style="fill:#382F2D; font-family:'CeraPro-Italic'; font-size:8px;">н</tspan><tspan x="35.8" y="0" style="fill:#382F2D; font-family:'CeraPro-Italic'; font-size:8px;">ы</tspan><tspan x="41.4" y="0" style="fill:#382F2D; font-family:'CeraPro-Italic'; font-size:8px;">й </tspan><tspan x="48.1" y="0" style="fill:#382F2D; font-family:'CeraPro-Italic'; font-size:8px;">з</tspan><tspan x="51.9" y="0" style="fill:#382F2D; font-family:'CeraPro-Italic'; font-size:8px;">на</tspan><tspan x="61.7" y="0" style="fill:#382F2D; font-family:'CeraPro-Italic'; font-size:8px;">к </tspan><tspan x="68" y="0" style="fill:#382F2D; font-family:'CeraPro-Italic'; font-size:8px;">н</tspan><tspan x="72.6" y="0" style="fill:#382F2D; font-family:'CeraPro-Italic'; font-size:8px;">а </tspan><tspan x="79.9" y="0" style="fill:#382F2D; font-family:'CeraPro-Italic'; font-size:8px;">ч</tspan><tspan x="84.1" y="0" style="fill:#382F2D; font-family:'CeraPro-Italic'; font-size:8px;">е</tspan><tspan x="88.7" y="0" style="fill:#382F2D; font-family:'CeraPro-Italic'; font-size:8px;">р</tspan><tspan x="93.9" y="0" style="fill:#382F2D; font-family:'CeraPro-Italic'; font-size:8px;">н</tspan><tspan x="98.5" y="0" style="fill:#382F2D; font-family:'CeraPro-Italic'; font-size:8px;">о</tspan><tspan x="103.5" y="0" style="fill:#382F2D; font-family:'CeraPro-Italic'; font-size:8px;">м </tspan><tspan x="111.2" y="0" style="fill:#382F2D; font-family:'CeraPro-Italic'; font-size:8px;">ф</tspan><tspan x="117.1" y="0" style="fill:#382F2D; font-family:'CeraPro-Italic'; font-size:8px;">о</tspan><tspan x="122.1" y="0" style="fill:#382F2D; font-family:'CeraPro-Italic'; font-size:8px;">н</tspan><tspan x="126.7" y="0" style="fill:#382F2D; font-family:'CeraPro-Italic'; font-size:8px;">е</tspan><tspan x="0" y="9.6" style="fill:#382F2D; font-family:'CeraPro-Italic'; font-size:8px;">в</tspan><tspan x="4.2" y="9.6" style="fill:#382F2D; font-family:'CeraPro-Italic'; font-size:8px;">о</tspan><tspan x="9.3" y="9.6" style="fill:#382F2D; font-family:'CeraPro-Italic'; font-size:8px;">с</tspan><tspan x="13.8" y="9.6" style="fill:#382F2D; font-family:'CeraPro-Italic'; font-size:8px;">п</tspan><tspan x="18.4" y="9.6" style="fill:#382F2D; font-family:'CeraPro-Italic'; font-size:8px;">р</tspan><tspan x="23.6" y="9.6" style="fill:#382F2D; font-family:'CeraPro-Italic'; font-size:8px;">о</tspan><tspan x="28.6" y="9.6" style="fill:#382F2D; font-family:'CeraPro-Italic'; font-size:8px;">и</tspan><tspan x="33.2" y="9.6" style="fill:#382F2D; font-family:'CeraPro-Italic'; font-size:8px;">з</tspan><tspan x="37" y="9.6" style="fill:#382F2D; font-family:'CeraPro-Italic'; font-size:8px;">в</tspan><tspan x="41.2" y="9.6" style="fill:#382F2D; font-family:'CeraPro-Italic'; font-size:8px;">о</tspan><tspan x="46.2" y="9.6" style="fill:#382F2D; font-family:'CeraPro-Italic'; font-size:8px;">ди</tspan><tspan x="55.8" y="9.6" style="fill:#382F2D; font-family:'CeraPro-Italic'; font-size:8px;">т</tspan><tspan x="62.9" y="9.6" style="fill:#382F2D; font-family:'CeraPro-Italic'; font-size:8px;">с</tspan><tspan x="67.5" y="9.6" style="fill:#382F2D; font-family:'CeraPro-Italic'; font-size:8px;">я в </tspan><tspan x="80.3" y="9.6" style="fill:#382F2D; font-family:'CeraPro-Italic'; font-size:8px;">б</tspan><tspan x="85.3" y="9.6" style="fill:#382F2D; font-family:'CeraPro-Italic'; font-size:8px;">е</tspan><tspan x="90.1" y="9.6" style="fill:#382F2D; font-family:'CeraPro-Italic'; font-size:8px;">ло</tspan><tspan x="99.5" y="9.6" style="fill:#382F2D; font-family:'CeraPro-Italic'; font-size:8px;">м </tspan><tspan x="107.2" y="9.6" style="fill:#382F2D; font-family:'CeraPro-Italic'; font-size:8px;">ц</tspan><tspan x="112.1" y="9.6" style="fill:#382F2D; font-family:'CeraPro-Italic'; font-size:8px;">ве</tspan><tspan x="121" y="9.6" style="fill:#382F2D; font-family:'CeraPro-Italic'; font-size:8px;">т</tspan><tspan x="128.1" y="9.6" style="fill:#382F2D; font-family:'CeraPro-Italic'; font-size:8px;">е</tspan><tspan x="132.7" y="9.6" style="fill:#382F2D; font-family:'CeraPro-Italic'; font-size:8px;">.</tspan></text> <text transform="matrix(1 0 0 1 773.1721 395.8224)" style="fill:#382F2D; font-family:'CeraPro-Italic'; font-size:8px;"> </text> <text transform="matrix(1 0 0 1 465.5417 395.8302)"><tspan x="0" y="0" style="fill:#382F2D; font-family:'CeraPro-Italic'; font-size:8px;">Ф</tspan><tspan x="6.6" y="0" style="fill:#382F2D; font-family:'CeraPro-Italic'; font-size:8px;">ир</tspan><tspan x="16.3" y="0" style="fill:#382F2D; font-family:'CeraPro-Italic'; font-size:8px;">м</tspan><tspan x="21.9" y="0" style="fill:#382F2D; font-family:'CeraPro-Italic'; font-size:8px;">е</tspan><tspan x="26.6" y="0" style="fill:#382F2D; font-family:'CeraPro-Italic'; font-size:8px;">н</tspan><tspan x="31.2" y="0" style="fill:#382F2D; font-family:'CeraPro-Italic'; font-size:8px;">н</tspan><tspan x="35.8" y="0" style="fill:#382F2D; font-family:'CeraPro-Italic'; font-size:8px;">ы</tspan><tspan x="41.4" y="0" style="fill:#382F2D; font-family:'CeraPro-Italic'; font-size:8px;">й </tspan><tspan x="48.1" y="0" style="fill:#382F2D; font-family:'CeraPro-Italic'; font-size:8px;">з</tspan><tspan x="51.9" y="0" style="fill:#382F2D; font-family:'CeraPro-Italic'; font-size:8px;">на</tspan><tspan x="61.7" y="0" style="fill:#382F2D; font-family:'CeraPro-Italic'; font-size:8px;">к </tspan><tspan x="68" y="0" style="fill:#382F2D; font-family:'CeraPro-Italic'; font-size:8px;">н</tspan><tspan x="72.6" y="0" style="fill:#382F2D; font-family:'CeraPro-Italic'; font-size:8px;">а </tspan><tspan x="79.9" y="0" style="fill:#382F2D; font-family:'CeraPro-Italic'; font-size:8px;">б</tspan><tspan x="85" y="0" style="fill:#382F2D; font-family:'CeraPro-Italic'; font-size:8px;">е</tspan><tspan x="89.7" y="0" style="fill:#382F2D; font-family:'CeraPro-Italic'; font-size:8px;">ло</tspan><tspan x="99.1" y="0" style="fill:#382F2D; font-family:'CeraPro-Italic'; font-size:8px;">м </tspan><tspan x="106.8" y="0" style="fill:#382F2D; font-family:'CeraPro-Italic'; font-size:8px;">ф</tspan><tspan x="112.8" y="0" style="fill:#382F2D; font-family:'CeraPro-Italic'; font-size:8px;">о</tspan><tspan x="117.7" y="0" style="fill:#382F2D; font-family:'CeraPro-Italic'; font-size:8px;">н</tspan><tspan x="122.4" y="0" style="fill:#382F2D; font-family:'CeraPro-Italic'; font-size:8px;">е</tspan><tspan x="126.9" y="0" style="fill:#382F2D; font-family:'CeraPro-Italic'; font-size:8px;">.</tspan></text> <g> <g> <rect x="503.3" y="538.3" class="st4" width="10.1" height="37.3"></rect> <rect x="564" y="555.7" class="st4" width="10.1" height="37.3"></rect> <rect x="543.8" y="592.9" class="st4" width="10.1" height="11.9"></rect> <rect x="543.8" y="544" class="st4" width="10.1" height="37.1"></rect> <path class="st4" d="M548.8,473.4L548.8,473.4c-25.2,0-45.6,20.4-45.6,45.6v7.6h10.1v-7.6c0-19.6,15.9-35.4,35.4-35.4h0 c19.6,0,35.4,15.9,35.4,35.4v36.7h10.1v-36.7C594.4,493.8,574,473.4,548.8,473.4z"></path> <rect x="543.8" y="592.9" class="st4" width="10.1" height="11.9"></rect> <rect x="543.8" y="544" class="st4" width="10.1" height="37.1"></rect> <path class="st4" d="M533.6,528.3c0-8.4,6.8-15.2,15.2-15.2c8.4,0,15.2,6.8,15.2,15.2v15.5h10.1v-15.5c0-14-11.3-25.3-25.3-25.3 c-14,0-25.3,11.3-25.3,25.3v6V593h10.1v-58.6V528.3z"></path> </g> </g> <rect x="644.4" y="448.9" class="st5" width="166.4" height="180.4"></rect> <g> <g> <rect x="682" y="538.3" class="st4" width="10.1" height="37.3"></rect> <rect x="742.7" y="555.7" class="st4" width="10.1" height="37.3"></rect> <rect x="722.5" y="592.9" class="st4" width="10.1" height="11.9"></rect> <rect x="722.5" y="544" class="st4" width="10.1" height="37.1"></rect> <path class="st4" d="M727.5,473.4L727.5,473.4c-25.2,0-45.6,20.4-45.6,45.6v7.6h10.1v-7.6c0-19.6,15.9-35.4,35.4-35.4h0 c19.6,0,35.4,15.9,35.4,35.4v36.7h10.1v-36.7C773.1,493.8,752.7,473.4,727.5,473.4z"></path> <rect x="722.5" y="592.9" class="st4" width="10.1" height="11.9"></rect> <rect x="722.5" y="544" class="st4" width="10.1" height="37.1"></rect> <path class="st4" d="M712.4,528.3c0-8.4,6.8-15.2,15.2-15.2s15.2,6.8,15.2,15.2v15.5h10.1v-15.5c0-14-11.3-25.3-25.3-25.3 s-25.3,11.3-25.3,25.3v6V593h10.1v-58.6V528.3z"></path> </g> </g> <g> <g> <rect x="1461.6" y="352.8" class="st4" width="10.1" height="37.3"></rect> <rect x="1522.3" y="370.1" class="st4" width="10.1" height="37.3"></rect> <rect x="1502.1" y="407.4" class="st4" width="10.1" height="11.9"></rect> <rect x="1502.1" y="358.4" class="st4" width="10.1" height="37.1"></rect> <path class="st4" d="M1507.1,287.8L1507.1,287.8c-25.2,0-45.6,20.4-45.6,45.6v7.6h10.1v-7.6c0-19.6,15.9-35.4,35.4-35.4h0 c19.6,0,35.4,15.9,35.4,35.4v36.7h10.1v-36.7C1552.7,308.2,1532.3,287.8,1507.1,287.8z"></path> <rect x="1502.1" y="407.4" class="st4" width="10.1" height="11.9"></rect> <rect x="1502.1" y="358.4" class="st4" width="10.1" height="37.1"></rect> <path class="st4" d="M1492,342.8c0-8.4,6.8-15.2,15.2-15.2s15.2,6.8,15.2,15.2v15.5h10.1v-15.5c0-14-11.3-25.3-25.3-25.3 s-25.3,11.3-25.3,25.3v6v58.6h10.1v-58.6V342.8z"></path> </g> </g> <text transform="matrix(1 0 0 1 882.4377 395.8145)"><tspan x="0" y="0" style="fill:#382F2D; font-family:'CeraPro-Italic'; font-size:8px;">Ф</tspan><tspan x="6.6" y="0" style="fill:#382F2D; font-family:'CeraPro-Italic'; font-size:8px;">ир</tspan><tspan x="16.3" y="0" style="fill:#382F2D; font-family:'CeraPro-Italic'; font-size:8px;">м</tspan><tspan x="21.9" y="0" style="fill:#382F2D; font-family:'CeraPro-Italic'; font-size:8px;">е</tspan><tspan x="26.6" y="0" style="fill:#382F2D; font-family:'CeraPro-Italic'; font-size:8px;">н</tspan><tspan x="31.2" y="0" style="fill:#382F2D; font-family:'CeraPro-Italic'; font-size:8px;">н</tspan><tspan x="35.8" y="0" style="fill:#382F2D; font-family:'CeraPro-Italic'; font-size:8px;">ы</tspan><tspan x="41.4" y="0" style="fill:#382F2D; font-family:'CeraPro-Italic'; font-size:8px;">й </tspan><tspan x="48.1" y="0" style="fill:#382F2D; font-family:'CeraPro-Italic'; font-size:8px;">з</tspan><tspan x="51.9" y="0" style="fill:#382F2D; font-family:'CeraPro-Italic'; font-size:8px;">на</tspan><tspan x="61.7" y="0" style="fill:#382F2D; font-family:'CeraPro-Italic'; font-size:8px;">к </tspan><tspan x="68" y="0" style="fill:#382F2D; font-family:'CeraPro-Italic'; font-size:8px;">н</tspan><tspan x="72.6" y="0" style="fill:#382F2D; font-family:'CeraPro-Italic'; font-size:8px;">а </tspan><tspan x="79.9" y="0" style="fill:#382F2D; font-family:'CeraPro-Italic'; font-size:8px;">б</tspan><tspan x="85" y="0" style="fill:#382F2D; font-family:'CeraPro-Italic'; font-size:8px;">е</tspan><tspan x="89.7" y="0" style="fill:#382F2D; font-family:'CeraPro-Italic'; font-size:8px;">ло</tspan><tspan x="99.1" y="0" style="fill:#382F2D; font-family:'CeraPro-Italic'; font-size:8px;">м </tspan><tspan x="106.8" y="0" style="fill:#382F2D; font-family:'CeraPro-Italic'; font-size:8px;">ф</tspan><tspan x="112.8" y="0" style="fill:#382F2D; font-family:'CeraPro-Italic'; font-size:8px;">о</tspan><tspan x="117.7" y="0" style="fill:#382F2D; font-family:'CeraPro-Italic'; font-size:8px;">н</tspan><tspan x="122.4" y="0" style="fill:#382F2D; font-family:'CeraPro-Italic'; font-size:8px;">е</tspan><tspan x="126.9" y="0" style="fill:#382F2D; font-family:'CeraPro-Italic'; font-size:8px;">. </tspan><tspan x="131.4" y="0" style="fill:#382F2D; font-family:'CeraPro-Italic'; font-size:8px;">Ч</tspan><tspan x="136.7" y="0" style="fill:#382F2D; font-family:'CeraPro-Italic'; font-size:8px;">е</tspan><tspan x="141.3" y="0" style="fill:#382F2D; font-family:'CeraPro-Italic'; font-size:8px;">р</tspan><tspan x="146.5" y="0" style="fill:#382F2D; font-family:'CeraPro-Italic'; font-size:8px;">н</tspan><tspan x="151.1" y="0" style="fill:#382F2D; font-family:'CeraPro-Italic'; font-size:8px;">ы</tspan><tspan x="156.6" y="0" style="fill:#382F2D; font-family:'CeraPro-Italic'; font-size:8px;">й</tspan><tspan x="161.2" y="0" style="fill:#382F2D; font-family:'CeraPro-Italic'; font-size:8px;">.</tspan></text> <g> <g> <rect x="920.1" y="538.3" class="st4" width="10.1" height="37.3"></rect> <rect x="980.8" y="555.7" class="st4" width="10.1" height="37.3"></rect> <rect x="960.6" y="592.9" class="st4" width="10.1" height="11.9"></rect> <rect x="960.6" y="544" class="st4" width="10.1" height="37.1"></rect> <path class="st4" d="M965.6,473.4L965.6,473.4c-25.2,0-45.6,20.4-45.6,45.6v7.6h10.1v-7.6c0-19.6,15.9-35.4,35.4-35.4h0 c19.6,0,35.4,15.9,35.4,35.4v36.7h10.1v-36.7C1011.2,493.8,990.8,473.4,965.6,473.4z"></path> <rect x="960.6" y="592.9" class="st4" width="10.1" height="11.9"></rect> <rect x="960.6" y="544" class="st4" width="10.1" height="37.1"></rect> <path class="st4" d="M950.4,528.3c0-8.4,6.8-15.2,15.2-15.2c8.4,0,15.2,6.8,15.2,15.2v15.5h10.1v-15.5c0-14-11.3-25.3-25.3-25.3 c-14,0-25.3,11.3-25.3,25.3v6V593h10.1v-58.6V528.3z"></path> </g> </g> <text transform="matrix(1 0 0 1 1197.1849 684.9722)"><tspan x="0" y="0" style="font-family:'CeraPro-Medium'; font-size:10px;">Ф</tspan><tspan x="7.8" y="0" style="font-family:'CeraPro-Medium'; font-size:10px;">А</tspan><tspan x="14.4" y="0" style="font-family:'CeraPro-Medium'; font-size:10px;">Й</tspan><tspan x="21.7" y="0" style="font-family:'CeraPro-Medium'; font-size:10px;">Л </tspan><tspan x="31.2" y="0" style="font-family:'CeraPro-Medium'; font-size:10px;">Д</tspan><tspan x="38.5" y="0" style="font-family:'CeraPro-Medium'; font-size:10px;">Л</tspan><tspan x="45.1" y="0" style="font-family:'CeraPro-Medium'; font-size:10px;">Я </tspan><tspan x="54.1" y="0" style="font-family:'CeraPro-Medium'; font-size:10px;">П</tspan><tspan x="61.1" y="0" style="font-family:'CeraPro-Medium'; font-size:10px;">Е</tspan><tspan x="66.8" y="0" style="font-family:'CeraPro-Medium'; font-size:10px;">Ч</tspan><tspan x="73.3" y="0" style="font-family:'CeraPro-Medium'; font-size:10px;">А</tspan><tspan x="79.1" y="0" style="font-family:'CeraPro-Medium'; font-size:10px;">ТИ</tspan></text> </svg> 