<?xml version="1.0" encoding="utf-8"?>
<!-- Generator: Adobe Illustrator 24.1.0, SVG Export Plug-In . SVG Version: 6.00 Build 0)  -->
<svg version="1.1" id="Слой_1" xmlns="http://www.w3.org/2000/svg" xmlns:xlink="http://www.w3.org/1999/xlink" x="0px" y="0px"
	 viewBox="0 0 295.7 180.4" style="enable-background:new 0 0 295.7 180.4;" xml:space="preserve">
<style type="text/css">
	.st0{fill-rule:evenodd;clip-rule:evenodd;fill:#FFFFFF;}
	.st1{fill:#FFFFFF;}
</style>
<g>
	<rect x="20.2" y="82.4" class="st0" width="10.1" height="37.2"/>
	<rect x="80.9" y="99.7" class="st0" width="10.1" height="37.3"/>
	<path class="st0" d="M65.7,17.5L65.7,17.5c-25.1,0-45.5,20.4-45.5,45.5v7.6h10.1V63c0-19.5,15.8-35.4,35.4-35.4h0
		c19.5,0,35.4,15.8,35.4,35.4v36.7h10.1V63C111.3,37.9,90.9,17.5,65.7,17.5z"/>
	<rect x="60.7" y="136.9" class="st0" width="10.1" height="11.9"/>
	<rect x="60.7" y="88" class="st0" width="10.1" height="37.1"/>
	<path class="st0" d="M50.6,72.4c0-8.4,6.8-15.2,15.2-15.2S80.9,64,80.9,72.4v15.5H91V72.4c0-14-11.3-25.3-25.3-25.3
		S40.5,58.4,40.5,72.4v6V137h10.1V78.4V72.4z"/>
	<g>
		<path class="st1" d="M157.5,123h-13.1v25.8h-3.6v-29.1h16.7V123z"/>
		<path class="st1" d="M169.1,149.1c-6.5,0-10.5-3.9-10.5-13.3v-3.2c0-9.4,4.1-13.3,10.5-13.3c6.5,0,10.5,3.9,10.5,13.3v3.2
			C179.6,145.2,175.5,149.1,169.1,149.1z M162.2,135.8c0,7.2,2.4,10,6.9,10c4.5,0,6.9-2.8,6.9-10v-3.2c0-7.2-2.4-10-6.9-10
			c-4.5,0-6.9,2.8-6.9,10V135.8z"/>
		<path class="st1" d="M189,137.7v11.1h-3.6v-29.1h9.3c6.7,0,10.6,3.4,10.6,9c0,5.6-3.8,9-10.6,9H189z M194.6,134.4
			c4.9,0,7-2.1,7-5.7c0-3.6-2-5.7-7-5.7H189v11.4H194.6z"/>
		<path class="st1" d="M219.2,149.1c-6.5,0-10.5-3.9-10.5-13.3v-3.2c0-9.4,4.1-13.3,10.5-13.3s10.5,3.9,10.5,13.3v3.2
			C229.8,145.2,225.7,149.1,219.2,149.1z M212.3,135.8c0,7.2,2.4,10,6.9,10c4.5,0,6.9-2.8,6.9-10v-3.2c0-7.2-2.4-10-6.9-10
			c-4.5,0-6.9,2.8-6.9,10V135.8z"/>
		<path class="st1" d="M232.3,154.3v-8.8h1.3c1.3-0.8,2.4-3,3.1-5c0.9-2.8,1.4-7.6,1.4-14.1v-6.7h17.5v25.8h3.6v8.8h-3.6v-5.5h-19.6
			v5.5H232.3z M238.2,145.5h13.7V123h-10.2v3.4c0,7.6-0.7,12.6-1.8,15.9C239.5,143.5,238.9,144.6,238.2,145.5z"/>
		<g>
			<path class="st1" d="M158.7,70.7l-9.9,24.1c-1.6,4-3.4,5.2-8.3,5.2v-3.3c2.9,0,4-0.3,5.2-3.2l0.1-0.3l-9.9-22.5h3.9l7.8,17.9
				l7.2-17.9H158.7z"/>
			<path class="st1" d="M175.1,88.7l8.6-18h3.6v29h-3.6V78.4l-7.1,15.2h-3.2l-6.9-15.1v21.1h-3.6v-29h3.5L175.1,88.7z"/>
			<path class="st1" d="M198.1,83h12.4V70.7h3.6v29h-3.6V86.3h-12.4v13.3h-3.6v-29h3.6V83z"/>
			<path class="st1" d="M224.8,70.7v11.5h4.9c7.4,0,10,4.6,10,8.8s-2.6,8.7-10,8.7h-8.5v-29H224.8z M224.8,85.4v11h4.9
				c4.4,0,6.4-2.3,6.4-5.5s-2-5.5-6.4-5.5H224.8z M246.6,99.7H243v-29h3.6V99.7z"/>
			<path class="st1" d="M257.4,70.7v21.8l13.8-21.8h3v29h-3.6V78.1l-13.7,21.6h-3.1v-29H257.4z M271.7,62.8c0,4.2-2.7,6-7.3,6
				s-7.3-1.8-7.3-6h3.4c0,1.7,0.7,3.4,3.9,3.4c3.2,0,3.9-1.7,3.9-3.4H271.7z"/>
			<path class="st1" d="M158.7,70.7l-9.9,24.1c-1.6,4-3.4,5.2-8.3,5.2v-3.3c2.9,0,4-0.3,5.2-3.2l0.1-0.3l-9.9-22.5h3.9l7.8,17.9
				l7.2-17.9H158.7z"/>
			<path class="st1" d="M175.1,88.7l8.6-18h3.6v29h-3.6V78.4l-7.1,15.2h-3.2l-6.9-15.1v21.1h-3.6v-29h3.5L175.1,88.7z"/>
			<path class="st1" d="M198.1,83h12.4V70.7h3.6v29h-3.6V86.3h-12.4v13.3h-3.6v-29h3.6V83z"/>
			<path class="st1" d="M224.8,70.7v11.5h4.9c7.4,0,10,4.6,10,8.8s-2.6,8.7-10,8.7h-8.5v-29H224.8z M224.8,85.4v11h4.9
				c4.4,0,6.4-2.3,6.4-5.5s-2-5.5-6.4-5.5H224.8z M246.6,99.7H243v-29h3.6V99.7z"/>
			<path class="st1" d="M257.4,70.7v21.8l13.8-21.8h3v29h-3.6V78.1l-13.7,21.6h-3.1v-29H257.4z M271.7,62.8c0,4.2-2.7,6-7.3,6
				s-7.3-1.8-7.3-6h3.4c0,1.7,0.7,3.4,3.9,3.4c3.2,0,3.9-1.7,3.9-3.4H271.7z"/>
		</g>
		<path class="st1" d="M157.5,123h-13.1v25.8h-3.6v-29.1h16.7V123z"/>
		<path class="st1" d="M169.1,149.1c-6.5,0-10.5-3.9-10.5-13.3v-3.2c0-9.4,4.1-13.3,10.5-13.3c6.5,0,10.5,3.9,10.5,13.3v3.2
			C179.6,145.2,175.5,149.1,169.1,149.1z M162.2,135.8c0,7.2,2.4,10,6.9,10c4.5,0,6.9-2.8,6.9-10v-3.2c0-7.2-2.4-10-6.9-10
			c-4.5,0-6.9,2.8-6.9,10V135.8z"/>
		<path class="st1" d="M189,137.7v11.1h-3.6v-29.1h9.3c6.7,0,10.6,3.4,10.6,9c0,5.6-3.8,9-10.6,9H189z M194.6,134.4
			c4.9,0,7-2.1,7-5.7c0-3.6-2-5.7-7-5.7H189v11.4H194.6z"/>
		<path class="st1" d="M219.2,149.1c-6.5,0-10.5-3.9-10.5-13.3v-3.2c0-9.4,4.1-13.3,10.5-13.3s10.5,3.9,10.5,13.3v3.2
			C229.8,145.2,225.7,149.1,219.2,149.1z M212.3,135.8c0,7.2,2.4,10,6.9,10c4.5,0,6.9-2.8,6.9-10v-3.2c0-7.2-2.4-10-6.9-10
			c-4.5,0-6.9,2.8-6.9,10V135.8z"/>
		<path class="st1" d="M232.3,154.3v-8.8h1.3c1.3-0.8,2.4-3,3.1-5c0.9-2.8,1.4-7.6,1.4-14.1v-6.7h17.5v25.8h3.6v8.8h-3.6v-5.5h-19.6
			v5.5H232.3z M238.2,145.5h13.7V123h-10.2v3.4c0,7.6-0.7,12.6-1.8,15.9C239.5,143.5,238.9,144.6,238.2,145.5z"/>
	</g>
</g>
</svg>
