<?xml version="1.0" encoding="UTF-8"?> <!-- Creator: CorelDRAW 2017 --> <svg xmlns="http://www.w3.org/2000/svg" xmlns:xlink="http://www.w3.org/1999/xlink" xml:space="preserve" width="999px" height="367px" shape-rendering="geometricPrecision" text-rendering="geometricPrecision" image-rendering="optimizeQuality" fill-rule="evenodd" clip-rule="evenodd" viewBox="0 0 999 367.27"> <g id="Слой_x0020_1"> <metadata id="CorelCorpID_0Corel-Layer"></metadata> <g id="_2990244442400"> <g> <g> <polygon fill="#191618" fill-rule="nonzero" points="358.12,230.87 382.2,162.53 398.46,162.53 367.04,248.11 349.2,248.11 317.78,162.53 334.04,162.53 "></polygon> <path fill="#191618" fill-rule="nonzero" d="M413.75 175.37c-5.01,0 -8.92,-3.79 -8.92,-8.8 0,-5.02 3.91,-8.81 8.92,-8.81 5.01,0 8.93,3.79 8.93,8.81 0,5.01 -3.92,8.8 -8.93,8.8zm-7.21 9.41l0 0 14.42 0 0 63.33 -14.42 0 0 -63.33z"></path> <path fill="#191618" fill-rule="nonzero" d="M456.91 183.32c9.9,0 18.95,3.42 25.42,10.02l-9.53 7.82c-3.79,-4.03 -9.53,-6.11 -14.67,-6.11 -5.99,0 -9.05,1.83 -9.05,5.5 0,3.55 2.45,5.75 14.55,9.29 13.81,4.03 21.03,10.03 21.03,20.54 0,11.61 -8.44,19.19 -24.69,19.19 -11.86,0 -22.26,-3.91 -29.71,-12.22l10.14 -8.07c4.89,5.01 11.5,8.55 18.34,8.55 7.33,0 10.51,-2.44 10.51,-6.72 0,-4.76 -2.81,-6.97 -13.69,-10.02 -16.5,-4.65 -21.88,-10.39 -21.88,-20.17 0,-10.39 8.31,-17.6 23.23,-17.6z"></path> <path fill="#191618" fill-rule="nonzero" d="M502.39 175.37c-5.01,0 -8.93,-3.79 -8.93,-8.8 0,-5.02 3.92,-8.81 8.93,-8.81 5.01,0 8.92,3.79 8.92,8.81 0,5.01 -3.91,8.8 -8.92,8.8zm-7.21 9.41l0 0 14.42 0 0 63.33 -14.42 0 0 -63.33z"></path> <path fill="#191618" fill-rule="nonzero" d="M528.31 226.96l0 -30.69 -11.13 0 0 -11.49 11.13 0 0 -18.95 14.42 0 0 18.95 15.16 0 0 11.49 -15.16 0 0 31.17c0,7.1 2.33,10.39 9.9,10.39 1.84,0 3.79,0 5.26,-0.12l0 11.5c-2.32,0.24 -5.13,0.36 -7.7,0.36 -15.28,0 -21.88,-6.72 -21.88,-22.61z"></path> <polygon fill="#191618" fill-rule="nonzero" points="586.26,175.24 560.59,175.24 560.59,162.53 627.09,162.53 627.09,175.24 601.42,175.24 601.42,248.11 586.26,248.11 "></polygon> <polygon fill="#191618" fill-rule="nonzero" points="651.18,247.62 625.75,184.78 640.54,184.78 658.15,228.91 674.28,184.78 689.07,184.78 656.19,274.02 641.4,274.02 "></polygon> <path fill="#191618" fill-rule="nonzero" d="M695.44 221.46l0 -36.68 14.42 0 0 36.8c0,11 6.24,16.25 14.55,16.25 8.31,0 14.55,-5.25 14.55,-16.25l0 -36.8 14.42 0 0 36.68c0,19.06 -11.49,28.11 -28.97,28.11 -17.48,0 -28.97,-9.05 -28.97,-28.11z"></path> <path fill="#191618" fill-rule="nonzero" d="M780.65 248.11l-14.43 0 0 -63.33 14.43 0 0 6.36c5.13,-4.65 11.74,-7.82 19.32,-7.82 8.19,0 14.18,3.3 17.36,9.41 5.5,-5.14 12.34,-9.41 22.12,-9.41 13.2,0 20.54,8.18 20.54,23.34l0 41.45 -14.42 0 0 -39.12c0,-8.93 -2.82,-13.94 -10.77,-13.94 -5.37,0 -11.36,3.3 -14.66,7.82 0.24,1.84 0.24,3.67 0.24,5.63l0 39.61 -14.42 0 0 -39.12c0,-8.93 -2.57,-13.94 -10.76,-13.94 -5.5,0 -11.13,3.05 -14.55,7.21l0 45.85z"></path> <path fill="#191618" fill-rule="nonzero" d="M930.78 221.7l-46.7 0c1.35,9.66 8.44,16.13 18.22,16.13 6.36,0 11.61,-2.93 15.77,-8.06l10.15 7.21c-6,8.07 -15.04,12.59 -25.8,12.59 -19.93,0 -33.01,-13.69 -33.01,-33.13 0,-19.19 12.35,-33.12 30.93,-33.12 18.22,0 30.69,13.81 30.69,33.49 0,1.34 0,3.54 -0.25,4.89zm-46.82 -11l0 0 32.52 0c-0.73,-9.66 -7.46,-15.65 -16.14,-15.65 -9.04,0 -15.03,5.87 -16.38,15.65z"></path> <path fill="#191618" fill-rule="nonzero" d="M955.36 203.61l0 44.5 -14.43 0 0 -63.33 14.43 0 0 7.34c4.89,-4.89 12.1,-8.8 21.27,-8.8 13.33,0 22.37,8.31 22.37,23.71l0 41.08 -14.42 0 0 -39c0,-8.92 -3.91,-14.06 -12.23,-14.06 -7.09,0 -13.57,4.16 -16.99,8.56z"></path> </g> </g> <g> <path fill="#191618" fill-rule="nonzero" d="M243.95 159.58c-0.7,0 -1.42,0.03 -2.17,0.07 -0.47,-1.55 4.3,-3.97 11.06,-3.97 -2.71,-3.46 -5.77,-4.72 -8.73,-4.72 -3.7,0 -7.25,1.96 -9.79,4.02 -0.88,0.03 -1.74,0.04 -2.57,0.04 -9.3,0 -15.65,-1.68 -21.94,-1.68 -2.34,0 -4.66,0.24 -7.14,0.88 -7.01,1.81 -15.89,3.96 -19.3,3.96 7.06,-7.75 12.79,-24.13 12.79,-39.59 0,-24.27 -15.69,-38.46 -35.26,-43.34 -4.68,-1.16 -11.58,-3.01 -11.58,-9.62 0,-7.98 10.73,-11.49 18.37,-11.49 1.57,0 3.07,0.09 4.42,0.09 2.63,0 5.57,-0.03 5.57,-2.21 0,-0.56 -2.27,-2.43 -6.83,-2.43 -10.12,0 -12.71,-0.13 -12.71,-0.19 0,-2.72 2.39,-4.46 6.51,-4.46 4.27,0 7.5,0.07 9.94,0.07 3.13,0 4.98,-0.11 6.08,-0.6 1.94,-0.87 4.44,-3.3 3.3,-7.02 0,0 1.8,-3.41 0.6,-5.01 -2.33,-3.11 -7.81,0 -14.62,-3.81 -6.81,-3.81 -15.63,-13.82 -27.04,-14.62 0,0 2.65,-7.32 -3.11,-13.95 0,0 -7.98,2.39 -11.72,8.14 0,0 -6.18,-5.89 -10.19,-7.5 0,0 -14.09,12.03 -9.24,30.93 -0.71,0.71 -9.44,12.73 -9.44,34.87 0,30.85 14.61,41.15 8.44,55.71 0,0 3.1,3.79 6.33,3.79 0.43,0 0.86,-0.07 1.28,-0.21 0,0 1.4,12.81 -15.02,32.84 -18.58,22.67 -25.64,30.28 -25.64,44.08 0,13.24 7.26,21.34 -2.77,21.34 -11.8,0 -17.98,-11.95 -17.98,-22.58 0,-43.14 40.74,-48.76 40.74,-96.28 0,-26.21 -17.59,-45.74 -19.28,-47.88 0,0 -4.71,3.58 -6.11,5.38 0,0 -12.25,-20.01 -36.95,-24.68 0,0 7.52,13.16 7.52,38.87 0,32.71 -32.68,57.58 -32.68,85.94 0,0 -2.83,-2.38 -4.43,-2.38 -0.52,0 -0.91,0.24 -1.04,0.88 -8.22,39.54 17.48,60.22 17.48,60.22 0,0 -5.35,2.61 -4.87,3.48 7.6,13.82 21.14,22.59 40.58,22.59 11.77,0 25.85,-5.32 30.41,-9.15 1.21,2.6 4.28,10.08 4.28,20.5 0,10.42 -6.23,20.64 -15.05,23.04 -8.81,2.4 -11.47,6.34 -12.07,21.13 -0.4,9.81 -0.58,27.41 4.22,38.03 4.81,10.61 16.03,19.32 23.24,19.32 4.42,0 4.75,-2.12 8.76,-2.12 4.01,0 4.49,4.07 2.64,7.61 0.04,0 0.08,0 0.13,0 4.61,0 8.94,-6.03 6.16,-10.81 2.94,0 6.03,3.42 3.92,8.4 5.37,-0.25 7.82,-6.44 5.21,-11.33 0,0 5.24,0.68 4.24,7.49 0,0 4.23,-2.13 4.23,-7.17 0,-5.51 -5.72,-11.09 -16.95,-11.09 -1.49,0 -3.07,0.1 -4.75,0.3 -0.47,0.06 -0.99,0.1 -1.54,0.1 -6.13,0 -16.57,-4.21 -16.57,-26.36 0,-8.45 4.41,-12.73 14.18,-15.69 22.97,-6.97 49.22,-22.34 49.22,-49.14 0,-14.1 -6.17,-24.68 -16.46,-32.13 -1.63,-13.26 4.54,-23.06 22.55,-31.13 -8.18,-5.06 -13.48,-12.43 -16.45,-18.5 -3.07,-6.27 -2.72,-12.77 -1.23,-13.48 0,0 0.48,1.65 0.75,2.65 0.33,1.22 7.87,27.8 33.25,31.13 0.26,-0.84 1.19,-4.23 0.62,-6.93 3.31,-0.17 14.26,-2.11 24.54,-6.21 5.58,-2.24 8.3,-3.05 10.27,-3.05 1.6,0 2.71,0.54 4.48,1.29 5.03,2.13 10.74,3.36 17.36,3.36 0.61,0 1.22,-0.01 1.85,-0.02 2.71,1.35 5.19,6.72 5.72,9.75 4.48,-3.17 4.93,-9.09 1.73,-13.31 0.26,-0.05 0.53,-0.07 0.81,-0.07 2.76,0 6.52,2.32 8.86,5.36 3.08,-7.6 -1.19,-11.19 -7.6,-12.25 1.06,-0.53 2.5,-0.85 4.18,-0.85 2.35,0 5.17,0.62 8.07,2.11 0.57,-7.39 -2.97,-8.75 -8.07,-8.75zm-101.87 -130.54l0 0 8.9 -2.52c1.08,-0.3 1.92,0.15 2.31,1.51 0.35,1.26 -0.05,2.77 -1.51,3.18 -3.47,0.98 -8.06,-0.62 -9.7,-2.17z"></path> <path fill="#C20E1C" fill-rule="nonzero" d="M194.33 59.36c3.68,0 7.77,-2.87 8.87,-8.78 0,0 -4.33,2.99 -8.87,1.82 -4.33,-1.11 -7.05,-4.63 -12.38,-5.69 -3.83,-0.77 -8.9,0.39 -9.91,0.86 10.6,0.67 12.06,11.79 22.29,11.79z"></path> <path fill="#191618" fill-rule="nonzero" d="M199.94 118.59c0,11.88 -3.33,24.94 -8.43,34.38 10.29,-1.93 16.95,-5.9 18.8,-7.75 0,0 -1.29,-3.41 -3.26,-4.87 3,-2.61 16.2,-17.5 20.18,-24.88 2.41,-4.48 5.6,-10.53 7.23,-13.8 1.63,-3.27 4.38,-5.1 6.41,-8.29 3.2,-5.03 4.57,-10.41 5.29,-17.79 1.71,-2.51 7.35,-4.26 10.43,-4.39 -1.54,-4.89 -8.1,-5.7 -12.7,-3.07 0.83,-2.72 3.43,-6.93 7.09,-9.06 -5.94,-3.68 -11.01,-0.6 -13.99,5.69 -0.93,-2.67 -0.33,-7.38 2.86,-11.97 -7.5,-1.56 -9.45,2.79 -9.95,9.01 -1.6,0.26 -3.37,-4.79 -2.49,-11.49 -7.78,2.8 -7.44,12.93 -3.12,18.27 -1.07,10.75 -2.47,15.14 -6.32,23.57 -2.85,6.22 -11.04,13.43 -18.58,18.71 0.36,2.5 0.55,5.07 0.55,7.73z"></path> <path fill="#191618" fill-rule="nonzero" d="M206.26 341.31c-1.55,0 -3.2,0.05 -4.94,0.14 -0.16,0.01 -0.32,0.01 -0.48,0.01 -10.72,0 -30.51,-18.99 -30.51,-29.62 0,-18.21 16.04,-26.79 16.04,-43.78 0,-22.64 -21.37,-42.68 -47.46,-49.03 9.02,8.24 13.59,18.83 13.59,31.58 0,12.82 -5.35,22.87 -12.83,30.66 2.78,3.32 7.95,9.04 7.95,16.7 0,11.74 -5.41,15.46 -1.14,24.62 2.66,5.68 10.61,16.66 20,25.19 10.44,9.49 20.32,14.61 27.93,14.61 4.87,0 4.95,-2.68 7.87,-2.81 2.52,1.05 4.57,3.35 3.55,7.69 4.84,-0.77 6.88,-7.15 4.33,-11.49 4.12,0.18 5.62,3.32 4.85,8.17 4.6,-1.79 6.64,-7.91 3.83,-12.25 0,0 4.63,1.01 4.11,7.37 2.55,-0.77 4.09,-3.78 4.09,-6.89 0,-6.64 -6.06,-10.87 -20.78,-10.87z"></path> </g> </g> </g> </svg> 