<?xml version="1.0" encoding="UTF-8" standalone="no"?>
<svg
   xmlns:dc="http://purl.org/dc/elements/1.1/"
   xmlns:cc="http://creativecommons.org/ns#"
   xmlns:rdf="http://www.w3.org/1999/02/22-rdf-syntax-ns#"
   xmlns:svg="http://www.w3.org/2000/svg"
   xmlns="http://www.w3.org/2000/svg"
   xmlns:sodipodi="http://sodipodi.sourceforge.net/DTD/sodipodi-0.dtd"
   xmlns:inkscape="http://www.inkscape.org/namespaces/inkscape"
   version="1.1"
   id="svg2"
   xml:space="preserve"
   width="164"
   height="162.66667"
   viewBox="0 0 164 162.66667"
   sodipodi:docname="NZHK_logo_1.eps"><metadata
     id="metadata8"><rdf:RDF><cc:Work
         rdf:about=""><dc:format>image/svg+xml</dc:format><dc:type
           rdf:resource="http://purl.org/dc/dcmitype/StillImage" /></cc:Work></rdf:RDF></metadata><defs
     id="defs6" /><sodipodi:namedview
     pagecolor="#ffffff"
     bordercolor="#666666"
     borderopacity="1"
     objecttolerance="10"
     gridtolerance="10"
     guidetolerance="10"
     inkscape:pageopacity="0"
     inkscape:pageshadow="2"
     inkscape:window-width="640"
     inkscape:window-height="480"
     id="namedview4" /><g
     id="g10"
     inkscape:groupmode="layer"
     inkscape:label="ink_ext_XXXXXX"
     transform="matrix(1.3333333,0,0,-1.3333333,0,162.66667)"><g
       id="g12"
       transform="scale(0.1)"><path
         d="m 612.617,1212.61 c 97.438,0 189.551,-22.8 271.344,-63.3 v -145.39 c -83.477,49.21 -180.773,77.47 -284.668,77.47 -310.09,0 -561.5586,-251.468 -561.5586,-561.562 0,-86.629 19.6562,-168.664 54.707,-241.937 H 91.582 C 33.5742,371.492 0.0625,481.859 0.0625,600.051 c 0,338.246 274.3085,612.559 612.5545,612.559 z M 1122.07,940.195 c 65.11,-97.312 103.11,-214.297 103.11,-340.144 0,-193.297 -89.61,-365.676 -229.512,-477.953 102.032,101.683 165.182,242.343 165.182,397.73 0,72.504 -13.75,141.801 -38.78,205.43 v 214.937"
         style="fill:#a4222b;fill-opacity:1;fill-rule:evenodd;stroke:none"
         id="path14" /><path
         d="M 87.7383,467.988 H 257.816 V 278 H 87.7383 v 189.988"
         style="fill:#254aa5;fill-opacity:1;fill-rule:evenodd;stroke:none"
         id="path16" /><path
         d="M 295.297,657.98 H 465.375 V 278 H 295.297 v 379.98"
         style="fill:#254aa5;fill-opacity:1;fill-rule:evenodd;stroke:none"
         id="path18" /><path
         d="M 502.859,822.621 H 672.938 V 278 H 502.859 v 544.621"
         style="fill:#254aa5;fill-opacity:1;fill-rule:evenodd;stroke:none"
         id="path20" /><path
         d="M 710.418,974.613 H 880.496 V 278 H 710.418 v 696.613"
         style="fill:#254aa5;fill-opacity:1;fill-rule:evenodd;stroke:none"
         id="path22" /><path
         d="M 917.973,1145.8 H 1088.05 V 278.008 H 917.973 V 1145.8"
         style="fill:#254aa5;fill-opacity:1;fill-rule:evenodd;stroke:none"
         id="path24" /><path
         d="m 88.957,240.82 h 90.164 v -82.113 h 71.32 v 82.113 h 89.782 V 9.39453 H 250.441 V 96.5586 h -71.32 V 9.39453 H 88.957 V 240.82"
         style="fill:#a4222b;fill-opacity:1;fill-rule:nonzero;stroke:none"
         id="path26" /><path
         d="m 544.461,240.82 h 90.16 V 9.39453 h -90.16 z m 153.055,0 h 98.148 L 723.723,128.508 799.781,9.39453 H 700.887 L 635.809,128.508 Z m -216.696,0 L 543.34,128.508 478.199,9.39453 H 379.363 L 456.484,128.508 384.23,240.82 h 96.59"
         style="fill:#a4222b;fill-opacity:1;fill-rule:nonzero;stroke:none"
         id="path28" /><path
         d="m 841.547,240.82 h 90.156 V 9.39453 h -90.156 z m 158.23,0 H 1103.54 L 1027.11,129.195 1109.47,9.39453 H 1002.84 L 934.266,129.195 999.777,240.82"
         style="fill:#a4222b;fill-opacity:1;fill-rule:nonzero;stroke:none"
         id="path30" /></g></g></svg>
